<?xml version="1.0" encoding="UTF-8"?>
<svg width="25px" height="22px" viewBox="0 0 25 22" version="1.1" xmlns="http://www.w3.org/2000/svg" xmlns:xlink="http://www.w3.org/1999/xlink">
    <!-- Generator: Sketch 47.1 (45422) - http://www.bohemiancoding.com/sketch -->
    <title>List icon</title>
    <desc>Created with Sketch.</desc>
    <defs></defs>
    <g id="Booking" stroke="none" stroke-width="1" fill="none" fill-rule="evenodd" stroke-linecap="round" stroke-linejoin="round">
        <g id="i5-01s1-Choose-Office-List" transform="translate(-223.000000, -120.000000)" stroke="#000000">
            <g id="List-icon" transform="translate(223.000000, 120.000000)">
                <path d="M5,3 C5,4.104 4.104,5 3,5 C1.894,5 1,4.104 1,3 C1,1.896 1.894,1 3,1 C4.104,1 5,1.896 5,3 L5,3 Z" id="Stroke-2690"></path>
                <path d="M9,2 L24,2" id="Stroke-2691"></path>
                <path d="M5,11 C5,12.104 4.104,13 3,13 C1.894,13 1,12.104 1,11 C1,9.896 1.894,9 3,9 C4.104,9 5,9.896 5,11 L5,11 Z" id="Stroke-2692"></path>
                <path d="M9,10 L24,10" id="Stroke-2693"></path>
                <path d="M5,19 C5,20.104 4.104,21 3,21 C1.894,21 1,20.104 1,19 C1,17.896 1.894,17 3,17 C4.104,17 5,17.896 5,19 L5,19 Z" id="Stroke-2694"></path>
                <path d="M9,18 L24,18" id="Stroke-2695"></path>
            </g>
        </g>
    </g>
</svg>