<?xml version="1.0" encoding="UTF-8"?>
<svg width="25px" height="25px" viewBox="0 0 25 25" version="1.1" xmlns="http://www.w3.org/2000/svg" xmlns:xlink="http://www.w3.org/1999/xlink">
    <!-- Generator: Sketch 47.1 (45422) - http://www.bohemiancoding.com/sketch -->
    <title>Pin icon</title>
    <desc>Created with Sketch.</desc>
    <defs></defs>
    <g id="Booking" stroke="none" stroke-width="1" fill="none" fill-rule="evenodd" stroke-linecap="round" stroke-linejoin="round">
        <g id="i5-01s1-Choose-Office-List" transform="translate(-275.000000, -118.000000)" stroke="#000000">
            <g id="Pin-icon" transform="translate(275.000000, 118.000000)">
                <path d="M16,7.5 C16,9.433 14.433,11 12.5,11 C10.566,11 9,9.433 9,7.5 C9,5.567 10.566,4 12.5,4 C14.433,4 16,5.567 16,7.5 L16,7.5 Z" id="Stroke-1779"></path>
                <path d="M19,7.84817352 C19,11.6308505 12.0005105,22 12.0005105,22 C12.0005105,22 5,11.6308505 5,7.84817352 C5,4.06649543 8.1326672,1 12.0005105,1 C15.8652906,1 19,4.06649543 19,7.84817352 L19,7.84817352 Z" id="Stroke-1780"></path>
                <path d="M17.5,20 C21.348,20.3409629 24,21.0618258 24,21.8952907 C24,23.0581426 18.852,24 12.5,24 C6.149,24 1,23.0581426 1,21.8952907 C1,21.0639305 3.635,20.3462247 7.458,20.0031571" id="Stroke-1781"></path>
            </g>
        </g>
    </g>
</svg>